<?xml version="1.0" standalone="no"?>
<!DOCTYPE svg PUBLIC "-//W3C//DTD SVG 20010904//EN"
 "http://www.w3.org/TR/2001/REC-SVG-20010904/DTD/svg10.dtd">
<svg version="1.0" xmlns="http://www.w3.org/2000/svg"
 width="512.000000pt" height="512.000000pt" viewBox="0 0 512.000000 512.000000"
 preserveAspectRatio="xMidYMid meet">
<metadata>
Created by potrace 1.11, written by Peter Selinger 2001-2013
</metadata>
<g transform="translate(0.000000,512.000000) scale(0.100000,-0.100000)"
fill="#000000" stroke="none">
<path d="M1104 4751 c-47 -22 -70 -66 -112 -220 -24 -88 -26 -112 -26 -286 1
-155 4 -203 20 -260 l19 -70 -57 -80 c-106 -147 -183 -328 -213 -504 -20 -109
-19 -377 0 -524 85 -647 445 -1035 1095 -1178 58 -13 106 -24 108 -25 2 -1 -8
-24 -21 -51 -45 -88 -69 -182 -74 -295 -3 -60 -7 -108 -9 -108 -1 0 -265 113
-586 251 -321 138 -608 262 -638 275 -81 35 -124 32 -166 -10 -63 -63 -40
-142 54 -183 96 -41 130 -72 262 -233 232 -283 362 -379 583 -427 117 -26 376
-19 480 13 16 5 17 -11 17 -251 l0 -257 34 -34 c39 -39 77 -44 127 -18 58 30
59 37 59 557 0 406 2 481 16 528 23 78 65 157 119 222 50 62 64 107 43 146
-24 44 -59 60 -168 76 -370 54 -634 168 -816 349 -193 194 -288 439 -315 814
-23 340 40 555 237 803 71 90 74 102 44 192 -49 146 -56 340 -20 496 l22 93
52 -6 c123 -17 334 -108 531 -231 55 -34 110 -65 123 -68 12 -3 46 1 75 9 102
28 314 63 452 75 254 22 570 -3 823 -65 121 -29 114 -31 260 61 181 113 389
203 509 219 l52 6 15 -51 c47 -158 45 -341 -4 -514 -36 -125 -35 -131 55 -237
112 -134 193 -318 216 -495 14 -107 6 -338 -15 -470 -33 -195 -107 -389 -200
-519 -169 -237 -450 -384 -852 -446 -186 -28 -182 -27 -210 -57 -17 -19 -24
-37 -24 -68 0 -35 9 -53 56 -115 70 -93 91 -133 115 -227 17 -70 19 -114 19
-551 l0 -474 34 -34 c40 -40 83 -45 133 -14 53 32 55 51 51 578 -4 451 -5 481
-25 554 -12 42 -35 104 -51 136 l-30 59 87 18 c134 28 340 98 452 156 375 193
592 518 664 996 22 151 30 372 16 478 -27 208 -109 418 -225 579 l-58 79 16
61 c53 211 41 447 -31 651 -14 39 -27 72 -28 73 -2 2 -24 -5 -48 -16 l-46 -20
14 46 c8 25 12 48 9 51 -2 3 -31 7 -63 9 -159 12 -421 -79 -687 -237 l-101
-60 -54 14 c-92 24 -291 53 -446 66 -239 19 -521 -1 -775 -55 l-110 -23 -92
55 c-110 67 -307 162 -396 191 -157 51 -306 64 -376 32z m216 -3622 l255 -110
-85 5 c-153 10 -266 58 -373 157 -34 32 -60 58 -57 59 3 0 120 -50 260 -111z"/>
</g>
</svg>
